<?xml version="1.0" encoding="UTF-8"?>
<svg width="28px" height="39px" viewBox="0 0 28 39" version="1.1" xmlns="http://www.w3.org/2000/svg" xmlns:xlink="http://www.w3.org/1999/xlink">
    <!-- Generator: Sketch 45.1 (43504) - http://www.bohemiancoding.com/sketch -->
    <title>icon</title>
    <desc>Created with Sketch.</desc>
    <defs></defs>
    <g id="Page-1" stroke="none" stroke-width="1" fill="none" fill-rule="evenodd">
        <g id="icon" transform="translate(0.000000, -0.125000)" fill="#FFFFFF">
            <g id="Group-5" transform="translate(6.870117, 0.125000)">
                <path d="M1.07498369,10.2980144 C0.818938186,9.90457599 0.603292242,9.48243304 0.433928055,9.03746773 L0.413818359,8.9979248 L0.419021453,8.9979248 C0.148102253,8.27224288 0,7.48668452 0,6.66653503 C0,2.9847094 2.9847094,0 6.66653503,0 C10.3483607,0 13.3330701,2.9847094 13.3330701,6.66653503 C13.3330701,7.48668452 13.1849678,8.27224288 12.9140486,8.9979248 L12.920166,8.9979248 L12.8993178,9.03700579 C12.698477,9.56478719 12.4325253,10.0604655 12.1112773,10.514226 L6.51751776,21 L1.07498369,10.2980144 Z M6.66653503,8.76642089 C7.82626996,8.76642089 8.76642089,7.82626996 8.76642089,6.66653503 C8.76642089,5.50680009 7.82626996,4.56664917 6.66653503,4.56664917 C5.50680009,4.56664917 4.56664917,5.50680009 4.56664917,6.66653503 C4.56664917,7.82626996 5.50680009,8.76642089 6.66653503,8.76642089 Z" id="Oval-2"></path>
            </g>
            <path d="M0.484813138,23.9062777 L-0.0177462012,28.125 L27.0675258,28.125 L26.5781641,24.0170649 C24.3734549,22.5673253 22.9179716,20.071382 22.9179716,17.2354923 C22.9179716,15.0908586 23.7503769,13.1406436 25.1097273,11.6903073 L25.0142018,10.8884208 C24.8943674,9.88247385 24.041303,9.125 23.0282435,9.125 L23.0282435,9.125 L22.779578,9.125 L13.4331495,26.125 L4.20498012,9.125 L4.02153609,9.125 L4.02153609,9.125 C3.00847658,9.125 2.15541221,9.88247385 2.03557781,10.8884208 L2.03557781,10.8884208 L1.92266606,11.8362558 C3.20281098,13.2702231 3.98091513,15.1619897 3.98091513,17.2354923 C3.98091513,20.0004179 2.59736318,22.4421977 0.484813138,23.9062777 Z" id="Rectangle-8"></path>
            <rect id="Rectangle-9" x="0" y="30.125" width="12.6750019" height="3"></rect>
            <rect id="Rectangle-9-Copy-2" x="0" y="35.125" width="12.6750019" height="4"></rect>
            <rect id="Rectangle-9-Copy" x="14.4102701" y="30.125" width="12.6750019" height="3"></rect>
            <rect id="Rectangle-9-Copy-3" x="14.4102701" y="35.125" width="12.6750019" height="4"></rect>
        </g>
    </g>
</svg>